HIERARCHY
ROOT Hips
{
    OFFSET 0.000000 0.000000 0.000000
    CHANNELS 6 Xposition Yposition Zposition Zrotation Xrotation Yrotation
    JOINT Spine
    {
        OFFSET -0.000000 7.858286 0.000000
        CHANNELS 3 Zrotation Xrotation Yrotation
        JOINT Spine1
        {
            OFFSET -0.000000 25.138355 0.000000
            CHANNELS 3 Zrotation Xrotation Yrotation
            JOINT Neck
            {
                OFFSET -0.000000 25.035116 2.275919
                CHANNELS 3 Zrotation Xrotation Yrotation
                JOINT Head
                {
                    OFFSET -0.000000 13.416585 -1.916655
                    CHANNELS 3 Zrotation Xrotation Yrotation
                    End Site
                    {
                        OFFSET -0.000000 23.958189 0.000000
                    }
                }
            }
            JOINT LeftShoulder
            {
                OFFSET 3.815342 24.034578 -0.234509
                CHANNELS 3 Zrotation Xrotation Yrotation
                JOINT LeftArm
                {
                    OFFSET 8.622727 0.000000 0.000000
                    CHANNELS 3 Zrotation Xrotation Yrotation
                    JOINT LeftForeArm
                    {
                        OFFSET 31.706440 0.000000 0.000000
                        CHANNELS 3 Zrotation Xrotation Yrotation
                        JOINT LeftHand
                        {
                            OFFSET 23.773136 0.000000 0.000000
                            CHANNELS 3 Zrotation Xrotation Yrotation
                            End Site
                            {
                                OFFSET 14.374913 0.000000 0.000000
                            }
                        }
                    }
                }
            }
            JOINT RightShoulder
            {
                OFFSET -3.836082 24.034578 -0.234509
                CHANNELS 3 Zrotation Xrotation Yrotation
                JOINT RightArm
                {
                    OFFSET -8.622727 0.000000 0.000000
                    CHANNELS 3 Zrotation Xrotation Yrotation
                    JOINT RightForeArm
                    {
                        OFFSET -31.706440 0.000000 0.000000
                        CHANNELS 3 Zrotation Xrotation Yrotation
                        JOINT RightHand
                        {
                            OFFSET -23.773136 0.000000 0.000000
                            CHANNELS 3 Zrotation Xrotation Yrotation
                            End Site
                            {
                                OFFSET -14.374913 0.000000 0.000000
                            }
                        }
                    }
                }
            }
        }
    }
    JOINT LeftUpLeg
    {
        OFFSET 9.583276 0.000000 0.000000
        CHANNELS 3 Zrotation Xrotation Yrotation
        JOINT LeftLeg
        {
            OFFSET -0.000000 -36.453522 0.000000
            CHANNELS 3 Zrotation Xrotation Yrotation
            JOINT LeftFoot
            {
                OFFSET -0.000000 -41.465855 0.000000
                CHANNELS 3 Zrotation Xrotation Yrotation
                JOINT LeftToeBase
                {
                    OFFSET -0.000000 -6.229129 14.374913
                    CHANNELS 3 Zrotation Xrotation Yrotation
                    End Site
                    {
                        OFFSET -0.000000 0.000000 3.833310
                    }
                }
            }
        }
    }
    JOINT RightUpLeg
    {
        OFFSET -9.583276 0.000000 0.000000
        CHANNELS 3 Zrotation Xrotation Yrotation
        JOINT RightLeg
        {
            OFFSET -0.000000 -36.453522 0.000000
            CHANNELS 3 Zrotation Xrotation Yrotation
            JOINT RightFoot
            {
                OFFSET -0.000000 -41.465855 0.000000
                CHANNELS 3 Zrotation Xrotation Yrotation
                JOINT RightToeBase
                {
                    OFFSET -0.000000 -6.229129 14.374913
                    CHANNELS 3 Zrotation Xrotation Yrotation
                    End Site
                    {
                        OFFSET -0.000000 0.000000 3.833310
                    }
                }
            }
        }
    }
}
MOTION
Frames:    6
Frame Time:    0.004000
-15.577420    79.112717    -198.967728    1.786799    0.559331    0.450404    -2.560284    -11.594137    -0.836060    1.698794    0.762443    -0.587359    -0.549213    32.172203    1.559921    0.353389    -9.527678    1.615080    7.770804    3.622870    5.197027    -13.505366    11.126924    -2.662660    5.009057    -9.081448    1.933629    3.848874    -9.199149    -1.030696    -8.291512    2.291152    7.398766    6.420827    3.212054    0.905529    -3.487937    -6.366182    2.831232    -7.383661    -6.329792    0.768692    0.279414    4.885622    0.733661    -8.016899    -2.647022    -1.477133    7.903392    -4.442187    8.583609    0.000000    0.000000    0.000000    -0.978633    2.206444    2.949886    4.285854    6.143407    2.491690    -9.041307    -10.625377    -12.489382    0.000000    0.000000    0.000000    
-15.572347    79.109695    -198.959091    1.786887    0.570899    0.443791    -2.569684    -11.606426    -0.836697    1.704871    0.769850    -0.586900    -0.552763    32.225525    1.546367    0.333642    -9.619514    1.595967    7.764977    3.621334    5.194753    -13.518535    11.139215    -2.652932    5.011372    -9.074305    1.934067    3.852328    -9.192269    -1.035665    -8.276598    2.304146    7.395801    6.433066    3.201635    0.921390    -3.491537    -6.355487    2.826460    -7.292450    -6.321613    0.817513    0.275321    4.885716    0.723696    -7.979355    -2.627566    -1.624923    7.804914    -4.458321    8.678523    0.000000    0.000000    0.000000    -0.978874    2.210045    2.936248    4.273993    6.126720    2.481468    -9.035099    -10.635876    -12.454466    0.000000    0.000000    0.000000    
-15.568865    79.108955    -198.947342    1.785352    0.572644    0.427955    -2.583669    -11.615136    -0.829836    1.716066    0.786131    -0.578824    -0.544235    32.215641    1.546811    0.299996    -9.616608    1.590330    7.756224    3.630440    5.190125    -13.522549    11.119196    -2.649665    5.055973    -9.199464    1.917267    3.994505    -9.313433    -0.883525    -8.261024    2.305226    7.383437    6.454247    3.216620    0.933152    -3.491456    -6.357887    2.826047    -7.241938    -6.326299    0.859044    0.268368    4.908432    0.731856    -8.012931    -2.686922    -1.443165    7.927522    -4.430191    8.586946    0.000000    0.000000    0.000000    -0.974216    2.217451    2.886414    4.258376    6.124817    2.541865    -9.048451    -10.624526    -12.456235    0.000000    0.000000    0.000000    
-15.566385    79.108337    -198.938751    1.778527    0.584071    0.419790    -2.590298    -11.620717    -0.827870    1.727811    0.780872    -0.576084    -0.564847    32.199108    1.553630    0.293948    -9.590622    1.592780    7.747404    3.624947    5.186292    -13.529147    11.116168    -2.637087    5.064914    -9.183967    1.914796    3.919589    -9.298686    -0.921399    -8.252935    2.326576    7.373456    6.473981    3.207456    0.952041    -3.497788    -6.354607    2.829731    -7.134418    -6.322264    0.864134    0.270961    4.916224    0.721550    -7.966393    -2.684441    -1.604958    7.883940    -4.453609    8.668400    0.000000    0.000000    0.000000    -0.965686    2.221623    2.912507    4.254869    6.106040    2.542404    -9.065278    -10.629470    -12.480691    0.000000    0.000000    0.000000    
-15.553720    79.100571    -198.924088    1.754551    0.532067    0.399472    -2.553884    -11.559816    -0.815022    1.724562    0.774898    -0.568082    -0.593205    32.195801    1.567039    0.287555    -9.587954    1.600831    7.717965    3.646184    5.196248    -13.522971    11.143840    -2.649204    5.156979    -9.379042    1.910351    3.941758    -9.487328    -0.689627    -8.252569    2.334998    7.383693    6.497779    3.228874    0.948252    -3.514987    -6.367239    2.834842    -6.974820    -6.333453    0.870016    0.283869    5.005147    0.711861    -7.965131    -2.727714    -1.586675    7.921299    -4.478946    8.668865    0.000000    0.000000    0.000000    -0.951570    2.287137    2.890822    4.253182    6.097019    2.574821    -9.107887    -10.634314    -12.475649    0.000000    0.000000    0.000000    
-15.549883    79.099678    -198.917267    1.750289    0.548029    0.395613    -2.569546    -11.575648    -0.815559    1.745256    0.781698    -0.566998    -0.595061    32.195549    1.564037    0.255320    -9.594844    1.590217    7.715339    3.661512    5.194460    -13.540125    11.075471    -2.651404    5.157337    -9.363470    1.906215    3.925747    -9.472682    -0.724907    -8.247392    2.355281    7.377131    6.518975    3.239527    0.958200    -3.526871    -6.376146    2.837595    -6.869438    -6.342459    0.891243    0.273764    5.004987    0.724681    -7.991055    -2.781056    -1.372779    7.993637    -4.461667    8.527978    0.000000    0.000000    0.000000    -0.945085    2.278233    2.868764    4.241858    6.088021    2.547017    -9.101615    -10.648777    -12.427155    0.000000    0.000000    0.000000    
